<svg width="32" height="40" viewBox="0 0 32 40" fill="none" xmlns="http://www.w3.org/2000/svg">
<path fill-rule="evenodd" clip-rule="evenodd" d="M16.2639 11.4707C17.8133 11.4707 20.7184 9.31665 23.7771 9.63077C25.0572 9.6851 28.6496 10.1575 30.9571 13.5987C30.7729 13.7215 26.668 16.1566 26.7176 21.2276C26.7695 27.2881 31.9255 29.3005 31.9846 29.3312C31.9373 29.4681 31.1603 32.2032 29.266 35.028C27.6293 37.4678 25.9334 39.8958 23.2598 39.9454C20.631 39.9974 19.7855 38.3559 16.7788 38.3559C13.7745 38.3559 12.8369 39.8958 10.3474 39.9974C7.76592 40.0966 5.80083 37.3615 4.15223 34.9312C0.779479 29.9547 -1.79731 20.8756 1.66283 14.7466C3.37992 11.7021 6.45033 9.77485 9.78531 9.72525C12.3196 9.67802 14.7145 11.4707 16.2639 11.4707ZM24.4948 0C24.7664 2.30283 23.7721 4.6151 22.3054 6.28021C20.8315 7.94298 18.4201 9.23729 16.0558 9.0625C15.737 6.80219 16.9297 4.4545 18.2902 2.97596C19.8112 1.31321 22.3786 0.0803125 24.4948 0Z" fill="white"/>
</svg>
