<svg width="40" height="40" viewBox="0 0 40 40" fill="none" xmlns="http://www.w3.org/2000/svg">
<path d="M30.8728 13.7205C25.7553 11.1216 17.5416 6.94819 4.80154 0.470912C3.94261 -0.0441672 2.95435 -0.111667 2.10049 0.150755L23.9589 19.9984L30.8728 13.7205Z" fill="#32BBFF"/>
<path d="M2.10049 0.150757C1.94046 0.199976 1.78472 0.259351 1.63579 0.33107C0.692879 0.794196 0 1.68537 0 2.81248V37.1844C0 38.3115 0.692793 39.2027 1.63579 39.6658C1.78447 39.7374 1.94011 39.797 2.09997 39.8465L23.9589 19.9984L2.10049 0.150757Z" fill="#32BBFF"/>
<path d="M23.9589 19.9985L2.09998 39.8466C2.95409 40.1109 3.94235 40.0486 4.80154 39.526C17.1567 33.244 25.2778 29.1201 30.4545 26.499C30.5986 26.4254 30.7398 26.3536 30.8794 26.2824L23.9589 19.9985Z" fill="#32BBFF"/>
<path d="M0 19.9985V37.1844C0 38.3116 0.692793 39.2027 1.63579 39.6658C1.78447 39.7374 1.94011 39.797 2.09997 39.8466L23.9589 19.9985H0Z" fill="#2C9FD9"/>
<path d="M4.80154 0.470931C3.78154 -0.140632 2.5787 -0.12321 1.63579 0.331165L23.6271 20.2996L30.8727 13.7206C25.7553 11.1216 17.5416 6.94821 4.80154 0.470931Z" fill="#29CC5E"/>
<path d="M23.6273 19.6974L1.63577 39.6658C2.57877 40.1201 3.78152 40.1463 4.80152 39.526C17.1567 33.244 25.2778 29.1201 30.4545 26.499C30.5986 26.4254 30.7398 26.3536 30.8793 26.2824L23.6273 19.6974Z" fill="#D93F21"/>
<path d="M40 19.9985C40 19.0461 39.4708 18.085 38.4219 17.552C38.4219 17.552 36.4602 16.5582 30.4475 13.5045L23.2956 19.9985L30.4545 26.4989C36.4012 23.4671 38.4218 22.4448 38.4218 22.4448C39.4708 21.9119 40 20.9508 40 19.9985Z" fill="#FFD500"/>
<path d="M38.4219 22.4449C39.4708 21.9119 40 20.9508 40 19.9985H23.2956L30.4545 26.4989C36.4013 23.4672 38.4219 22.4449 38.4219 22.4449Z" fill="#FFAA00"/>
</svg>
